<?xml version="1.0" encoding="iso-8859-1"?>
<!-- Generator: Adobe Illustrator 18.1.1, SVG Export Plug-In . SVG Version: 6.00 Build 0)  -->
<svg xmlns="http://www.w3.org/2000/svg" xmlns:xlink="http://www.w3.org/1999/xlink" version="1.1" id="Capa_1" x="0px" y="0px" viewBox="0 0 319.812 319.812" style="enable-background:new 0 0 319.812 319.812;" xml:space="preserve" width="512px" height="512px">
<g>
	<path d="M306.854,145.676c-5.738,0.707-11.471,1.197-17.215,1.566c-0.005-0.12,0-0.25-0.005-0.375   c-2.959-66.895-53.161-114.541-119.817-113.611c-2.246-0.049-4.482-0.044-6.712,0.005c-0.631-5.325-1.191-10.666-1.539-16.029   c-1.131-17.405-28.332-17.519-27.195,0c0.408,6.32,1.11,12.602,1.887,18.884C78.566,47.305,32.41,90.404,27.76,151.697   c-4.863,0-9.736,0-14.604,0c-17.541,0-17.541,27.195,0,27.195c5.064,0,10.128,0,15.191,0   c7.8,64.089,59.721,103.897,120.116,109.287c0.163,4.781,0.321,9.556,0.354,14.343c0.12,17.53,27.315,17.546,27.195,0   c-0.033-4.737-0.19-9.475-0.354-14.207c7.713-0.62,15.469-1.784,23.208-3.53c51.84-11.721,82.581-60.216,89.386-110.239   c6.211-0.381,12.412-0.908,18.612-1.67C324.025,170.761,324.232,143.538,306.854,145.676z M227.411,175.275   c11.226,0.033,22.447,0.174,33.646,0.098c-4.71,31.846-22.578,62.065-54.543,78.078c-9.812,4.911-20.826,7.413-32.183,8.224   c-0.653-10.459-1.371-20.919-1.942-31.389c-0.952-17.438-28.153-17.536-27.195,0c0.555,10.144,1.246,20.282,1.876,30.426   c-10.557-1.36-20.853-3.699-30.181-6.505c-35.686-10.753-54.467-40.858-60.58-75.32c8.077,0,16.165,0,24.242,0   c17.541,0,17.541-27.195,0-27.195c-8.67,0-17.334,0-25.999,0c3.258-46.689,40.57-78.828,84.926-88.33   c0.696,7.457,1.131,14.941,0.903,22.485c-0.533,17.552,26.662,17.497,27.195,0c0.261-8.523-0.299-16.97-1.164-25.39   c1.131-0.005,2.263-0.033,3.399-0.005c56.615-0.794,88.173,41.418,92.138,87.721c-11.504,0.092-23.013-0.06-34.543-0.092   C209.87,148.026,209.876,175.221,227.411,175.275z" fill="#FFFFFF"/>
</g>
<g>
</g>
<g>
</g>
<g>
</g>
<g>
</g>
<g>
</g>
<g>
</g>
<g>
</g>
<g>
</g>
<g>
</g>
<g>
</g>
<g>
</g>
<g>
</g>
<g>
</g>
<g>
</g>
<g>
</g>
</svg>
