<svg xmlns="http://www.w3.org/2000/svg" xmlns:xlink="http://www.w3.org/1999/xlink" version="1.1" id="Capa_1" x="0px" y="0px" width="512px" height="512px" viewBox="0 0 512 512" style="enable-background:new 0 0 512 512;" xml:space="preserve">
<g>
	<path d="M256,0C114.615,0,0,114.615,0,256s114.615,256,256,256s256-114.615,256-256S397.385,0,256,0z M256,448   c-106.039,0-192-85.961-192-192S149.961,64,256,64s192,85.961,192,192S362.039,448,256,448z M160,256c0,53.02,42.98,96,96,96   c53.02,0,96-42.98,96-96c0-53.02-42.98-96-96-96C202.98,160,160,202.98,160,256z" fill="#FFFFFF"/>
</g>
</svg>
